<mxfile host="app.diagrams.net" agent="Mozilla/5.0 (Windows NT 10.0; Win64; x64) AppleWebKit/537.36 (KHTML, like Gecko) Chrome/135.0.0.0 Safari/537.36" version="26.2.12">
  <diagram name="Page-1" id="xtLRZRomz-fxhVOw-txb">
    <mxGraphModel dx="309" dy="163" grid="0" gridSize="10" guides="1" tooltips="1" connect="1" arrows="1" fold="1" page="1" pageScale="1" pageWidth="1169" pageHeight="827" background="none" math="0" shadow="0">
      <root>
        <mxCell id="0" />
        <mxCell id="1" parent="0" />
        <mxCell id="yy3Ijg_ue1_PDFxGy03H-34" value="" style="rounded=1;arcSize=0;fillColor=none;gradientColor=none;strokeWidth=2;strokeColor=light-dark(#ffffff, #ededed);" vertex="1" parent="1">
          <mxGeometry x="4" y="5" width="1140" height="755" as="geometry" />
        </mxCell>
        <mxCell id="yy3Ijg_ue1_PDFxGy03H-33" value="Region" style="points=[[0,0],[0.25,0],[0.5,0],[0.75,0],[1,0],[1,0.25],[1,0.5],[1,0.75],[1,1],[0.75,1],[0.5,1],[0.25,1],[0,1],[0,0.75],[0,0.5],[0,0.25]];outlineConnect=0;gradientColor=none;html=1;whiteSpace=wrap;fontSize=12;fontStyle=0;container=1;pointerEvents=0;collapsible=0;recursiveResize=0;shape=mxgraph.aws4.group;grIcon=mxgraph.aws4.group_region;strokeColor=#00A4A6;fillColor=none;verticalAlign=top;align=left;spacingLeft=30;fontColor=#147EBA;dashed=1;" vertex="1" parent="1">
          <mxGeometry x="46" y="136" width="1054" height="574" as="geometry" />
        </mxCell>
        <mxCell id="yy3Ijg_ue1_PDFxGy03H-40" value="Fetching Secrets" style="text;html=1;align=center;verticalAlign=middle;whiteSpace=wrap;rounded=0;fontColor=#9933FF;" vertex="1" parent="yy3Ijg_ue1_PDFxGy03H-33">
          <mxGeometry x="608.32" y="40" width="154" height="30" as="geometry" />
        </mxCell>
        <mxCell id="yy3Ijg_ue1_PDFxGy03H-3" value="VPC" style="sketch=0;outlineConnect=0;gradientColor=none;html=1;whiteSpace=wrap;fontSize=12;fontStyle=0;shape=mxgraph.aws4.group;grIcon=mxgraph.aws4.group_vpc;strokeColor=#879196;fillColor=none;verticalAlign=top;align=left;spacingLeft=30;fontColor=#879196;dashed=0;" vertex="1" parent="1">
          <mxGeometry x="100" y="228" width="420" height="422" as="geometry" />
        </mxCell>
        <mxCell id="yy3Ijg_ue1_PDFxGy03H-12" style="edgeStyle=orthogonalEdgeStyle;rounded=0;orthogonalLoop=1;jettySize=auto;html=1;dashed=1;endArrow=block;endFill=1;strokeColor=#007FFF;flowAnimation=1;" edge="1" parent="1" source="yy3Ijg_ue1_PDFxGy03H-4" target="yy3Ijg_ue1_PDFxGy03H-10">
          <mxGeometry relative="1" as="geometry">
            <Array as="points">
              <mxPoint x="210" y="610" />
            </Array>
          </mxGeometry>
        </mxCell>
        <mxCell id="yy3Ijg_ue1_PDFxGy03H-32" style="edgeStyle=orthogonalEdgeStyle;rounded=0;orthogonalLoop=1;jettySize=auto;html=1;exitX=0.5;exitY=0;exitDx=0;exitDy=0;entryX=-0.014;entryY=0.466;entryDx=0;entryDy=0;entryPerimeter=0;endArrow=block;endFill=1;dashed=1;strokeColor=#007FFF;flowAnimation=1;" edge="1" parent="1" source="yy3Ijg_ue1_PDFxGy03H-4" target="yy3Ijg_ue1_PDFxGy03H-6">
          <mxGeometry relative="1" as="geometry" />
        </mxCell>
        <mxCell id="yy3Ijg_ue1_PDFxGy03H-4" value="ap-northeast-1a" style="fillColor=none;strokeColor=#147EBA;verticalAlign=top;fontStyle=0;fontColor=#147EBA;whiteSpace=wrap;html=1;" vertex="1" parent="1">
          <mxGeometry x="130" y="340" width="160" height="199" as="geometry" />
        </mxCell>
        <mxCell id="yy3Ijg_ue1_PDFxGy03H-1" value="Public subnet A" style="points=[[0,0],[0.25,0],[0.5,0],[0.75,0],[1,0],[1,0.25],[1,0.5],[1,0.75],[1,1],[0.75,1],[0.5,1],[0.25,1],[0,1],[0,0.75],[0,0.5],[0,0.25]];outlineConnect=0;gradientColor=none;html=1;whiteSpace=wrap;fontSize=12;fontStyle=0;container=1;pointerEvents=0;collapsible=0;recursiveResize=0;shape=mxgraph.aws4.group;grIcon=mxgraph.aws4.group_security_group;grStroke=0;strokeColor=#7AA116;fillColor=#F2F6E8;verticalAlign=top;align=left;spacingLeft=30;fontColor=#248814;dashed=0;" vertex="1" parent="1">
          <mxGeometry x="140" y="380" width="140" height="140" as="geometry" />
        </mxCell>
        <mxCell id="yy3Ijg_ue1_PDFxGy03H-9" value="Elastic IP" style="sketch=0;outlineConnect=0;fontColor=#232F3E;gradientColor=none;strokeColor=#232F3E;fillColor=none;dashed=0;verticalLabelPosition=bottom;verticalAlign=top;align=center;html=1;fontSize=12;fontStyle=0;aspect=fixed;shape=mxgraph.aws4.resourceIcon;resIcon=mxgraph.aws4.elastic_ip_address;fillStyle=auto;" vertex="1" parent="yy3Ijg_ue1_PDFxGy03H-1">
          <mxGeometry x="50" y="50" width="30" height="30" as="geometry" />
        </mxCell>
        <mxCell id="yy3Ijg_ue1_PDFxGy03H-45" style="edgeStyle=orthogonalEdgeStyle;rounded=0;orthogonalLoop=1;jettySize=auto;html=1;exitX=0.5;exitY=0;exitDx=0;exitDy=0;entryX=1.01;entryY=0.48;entryDx=0;entryDy=0;entryPerimeter=0;endArrow=block;endFill=1;dashed=1;strokeColor=#007FFF;flowAnimation=1;" edge="1" parent="1" source="yy3Ijg_ue1_PDFxGy03H-5" target="yy3Ijg_ue1_PDFxGy03H-6">
          <mxGeometry relative="1" as="geometry">
            <mxPoint x="340" y="244" as="targetPoint" />
            <Array as="points">
              <mxPoint x="415" y="244" />
            </Array>
          </mxGeometry>
        </mxCell>
        <mxCell id="yy3Ijg_ue1_PDFxGy03H-5" value="ap-northeast-1c" style="fillColor=none;strokeColor=#147EBA;verticalAlign=top;fontStyle=0;fontColor=#147EBA;whiteSpace=wrap;html=1;" vertex="1" parent="1">
          <mxGeometry x="341" y="340" width="149" height="199" as="geometry" />
        </mxCell>
        <mxCell id="yy3Ijg_ue1_PDFxGy03H-2" value="Public subnet B" style="points=[[0,0],[0.25,0],[0.5,0],[0.75,0],[1,0],[1,0.25],[1,0.5],[1,0.75],[1,1],[0.75,1],[0.5,1],[0.25,1],[0,1],[0,0.75],[0,0.5],[0,0.25]];outlineConnect=0;gradientColor=none;html=1;whiteSpace=wrap;fontSize=12;fontStyle=0;container=1;pointerEvents=0;collapsible=0;recursiveResize=0;shape=mxgraph.aws4.group;grIcon=mxgraph.aws4.group_security_group;grStroke=0;strokeColor=#7AA116;fillColor=#F2F6E8;verticalAlign=top;align=left;spacingLeft=30;fontColor=#248814;dashed=0;" vertex="1" parent="1">
          <mxGeometry x="350" y="380" width="130" height="140" as="geometry" />
        </mxCell>
        <mxCell id="yy3Ijg_ue1_PDFxGy03H-8" value="Elastic IP" style="sketch=0;outlineConnect=0;fontColor=#232F3E;gradientColor=none;strokeColor=#232F3E;fillColor=none;dashed=0;verticalLabelPosition=bottom;verticalAlign=top;align=center;html=1;fontSize=12;fontStyle=0;aspect=fixed;shape=mxgraph.aws4.resourceIcon;resIcon=mxgraph.aws4.elastic_ip_address;" vertex="1" parent="yy3Ijg_ue1_PDFxGy03H-2">
          <mxGeometry x="50" y="50" width="30" height="30" as="geometry" />
        </mxCell>
        <mxCell id="yy3Ijg_ue1_PDFxGy03H-6" value="" style="sketch=0;outlineConnect=0;fontColor=#232F3E;gradientColor=none;fillColor=#8C4FFF;strokeColor=none;dashed=0;verticalLabelPosition=bottom;verticalAlign=top;align=center;html=1;fontSize=12;fontStyle=0;aspect=fixed;pointerEvents=1;shape=mxgraph.aws4.internet_gateway;fillStyle=solid;" vertex="1" parent="1">
          <mxGeometry x="287.5" y="220" width="50" height="50" as="geometry" />
        </mxCell>
        <mxCell id="yy3Ijg_ue1_PDFxGy03H-22" style="edgeStyle=orthogonalEdgeStyle;rounded=0;orthogonalLoop=1;jettySize=auto;html=1;exitX=1;exitY=0.25;exitDx=0;exitDy=0;exitPerimeter=0;entryX=0;entryY=0.5;entryDx=0;entryDy=0;entryPerimeter=0;dashed=1;endArrow=block;endFill=1;strokeColor=#007FFF;flowAnimation=1;" edge="1" parent="1" source="yy3Ijg_ue1_PDFxGy03H-10" target="yy3Ijg_ue1_PDFxGy03H-21">
          <mxGeometry relative="1" as="geometry">
            <mxPoint x="1053" y="319.2941176470588" as="targetPoint" />
            <Array as="points">
              <mxPoint x="800" y="571" />
              <mxPoint x="800" y="393" />
            </Array>
          </mxGeometry>
        </mxCell>
        <mxCell id="yy3Ijg_ue1_PDFxGy03H-10" value="" style="sketch=0;points=[[0,0,0],[0.25,0,0],[0.5,0,0],[0.75,0,0],[1,0,0],[0,1,0],[0.25,1,0],[0.5,1,0],[0.75,1,0],[1,1,0],[0,0.25,0],[0,0.5,0],[0,0.75,0],[1,0.25,0],[1,0.5,0],[1,0.75,0]];outlineConnect=0;fontColor=#232F3E;fillColor=#01A88D;strokeColor=#ffffff;dashed=0;verticalLabelPosition=bottom;verticalAlign=top;align=center;html=1;fontSize=12;fontStyle=0;aspect=fixed;shape=mxgraph.aws4.resourceIcon;resIcon=mxgraph.aws4.transfer_family;" vertex="1" parent="1">
          <mxGeometry x="628" y="551" width="78" height="78" as="geometry" />
        </mxCell>
        <mxCell id="yy3Ijg_ue1_PDFxGy03H-14" style="edgeStyle=orthogonalEdgeStyle;rounded=0;orthogonalLoop=1;jettySize=auto;html=1;entryX=0;entryY=0.5;entryDx=0;entryDy=0;entryPerimeter=0;dashed=1;endArrow=block;endFill=1;strokeColor=#007FFF;flowAnimation=1;" edge="1" parent="1" source="yy3Ijg_ue1_PDFxGy03H-5" target="yy3Ijg_ue1_PDFxGy03H-10">
          <mxGeometry relative="1" as="geometry">
            <Array as="points">
              <mxPoint x="418" y="590" />
            </Array>
          </mxGeometry>
        </mxCell>
        <mxCell id="yy3Ijg_ue1_PDFxGy03H-15" value="" style="outlineConnect=0;dashed=0;verticalLabelPosition=bottom;verticalAlign=top;align=center;html=1;shape=mxgraph.aws3.lambda_function;fillColor=#F58534;gradientColor=none;" vertex="1" parent="1">
          <mxGeometry x="632.5" y="300" width="69" height="72" as="geometry" />
        </mxCell>
        <mxCell id="yy3Ijg_ue1_PDFxGy03H-16" style="edgeStyle=orthogonalEdgeStyle;rounded=0;orthogonalLoop=1;jettySize=auto;html=1;entryX=0.5;entryY=1;entryDx=0;entryDy=0;entryPerimeter=0;dashed=1;endArrow=block;endFill=1;strokeColor=#007FFF;flowAnimation=1;" edge="1" parent="1" source="yy3Ijg_ue1_PDFxGy03H-10" target="yy3Ijg_ue1_PDFxGy03H-15">
          <mxGeometry relative="1" as="geometry" />
        </mxCell>
        <mxCell id="yy3Ijg_ue1_PDFxGy03H-17" value="" style="sketch=0;outlineConnect=0;fontColor=#232F3E;gradientColor=none;fillColor=#DD344C;strokeColor=none;dashed=0;verticalLabelPosition=bottom;verticalAlign=top;align=center;html=1;fontSize=12;fontStyle=0;aspect=fixed;pointerEvents=1;shape=mxgraph.aws4.role;" vertex="1" parent="1">
          <mxGeometry x="701.5" y="236.36" width="59.64" height="33.64" as="geometry" />
        </mxCell>
        <mxCell id="yy3Ijg_ue1_PDFxGy03H-18" value="" style="sketch=0;outlineConnect=0;fontColor=#232F3E;gradientColor=none;fillColor=#DD344C;strokeColor=none;dashed=0;verticalLabelPosition=bottom;verticalAlign=top;align=center;html=1;fontSize=12;fontStyle=0;aspect=fixed;pointerEvents=1;shape=mxgraph.aws4.role;" vertex="1" parent="1">
          <mxGeometry x="720" y="610" width="59.64" height="33.64" as="geometry" />
        </mxCell>
        <mxCell id="yy3Ijg_ue1_PDFxGy03H-19" value="" style="sketch=0;points=[[0,0,0],[0.25,0,0],[0.5,0,0],[0.75,0,0],[1,0,0],[0,1,0],[0.25,1,0],[0.5,1,0],[0.75,1,0],[1,1,0],[0,0.25,0],[0,0.5,0],[0,0.75,0],[1,0.25,0],[1,0.5,0],[1,0.75,0]];outlineConnect=0;fontColor=#232F3E;fillColor=#7AA116;strokeColor=#ffffff;dashed=0;verticalLabelPosition=bottom;verticalAlign=top;align=center;html=1;fontSize=12;fontStyle=0;aspect=fixed;shape=mxgraph.aws4.resourceIcon;resIcon=mxgraph.aws4.s3;" vertex="1" parent="1">
          <mxGeometry x="903" y="551" width="79" height="79" as="geometry" />
        </mxCell>
        <mxCell id="yy3Ijg_ue1_PDFxGy03H-20" style="edgeStyle=orthogonalEdgeStyle;rounded=0;orthogonalLoop=1;jettySize=auto;html=1;startArrow=none;startFill=0;dashed=1;endArrow=block;endFill=1;strokeColor=#007FFF;flowAnimation=1;" edge="1" parent="1" source="yy3Ijg_ue1_PDFxGy03H-10" target="yy3Ijg_ue1_PDFxGy03H-19">
          <mxGeometry relative="1" as="geometry">
            <Array as="points" />
          </mxGeometry>
        </mxCell>
        <mxCell id="yy3Ijg_ue1_PDFxGy03H-21" value="" style="sketch=0;points=[[0,0,0],[0.25,0,0],[0.5,0,0],[0.75,0,0],[1,0,0],[0,1,0],[0.25,1,0],[0.5,1,0],[0.75,1,0],[1,1,0],[0,0.25,0],[0,0.5,0],[0,0.75,0],[1,0.25,0],[1,0.5,0],[1,0.75,0]];points=[[0,0,0],[0.25,0,0],[0.5,0,0],[0.75,0,0],[1,0,0],[0,1,0],[0.25,1,0],[0.5,1,0],[0.75,1,0],[1,1,0],[0,0.25,0],[0,0.5,0],[0,0.75,0],[1,0.25,0],[1,0.5,0],[1,0.75,0]];outlineConnect=0;fontColor=#232F3E;fillColor=#E7157B;strokeColor=#ffffff;dashed=0;verticalLabelPosition=bottom;verticalAlign=top;align=center;html=1;fontSize=12;fontStyle=0;aspect=fixed;shape=mxgraph.aws4.resourceIcon;resIcon=mxgraph.aws4.cloudwatch_2;" vertex="1" parent="1">
          <mxGeometry x="903" y="354" width="78" height="78" as="geometry" />
        </mxCell>
        <mxCell id="yy3Ijg_ue1_PDFxGy03H-23" value="" style="sketch=0;outlineConnect=0;fontColor=#232F3E;gradientColor=none;fillColor=#DD344C;strokeColor=none;dashed=0;verticalLabelPosition=bottom;verticalAlign=top;align=center;html=1;fontSize=12;fontStyle=0;aspect=fixed;pointerEvents=1;shape=mxgraph.aws4.role;" vertex="1" parent="1">
          <mxGeometry x="992" y="354" width="59.64" height="33.64" as="geometry" />
        </mxCell>
        <mxCell id="yy3Ijg_ue1_PDFxGy03H-27" style="edgeStyle=orthogonalEdgeStyle;rounded=0;orthogonalLoop=1;jettySize=auto;html=1;exitX=0.5;exitY=1;exitDx=0;exitDy=0;dashed=1;endArrow=block;endFill=1;flowAnimation=1;" edge="1" parent="1" source="yy3Ijg_ue1_PDFxGy03H-43" target="yy3Ijg_ue1_PDFxGy03H-6">
          <mxGeometry relative="1" as="geometry">
            <mxPoint x="313.4999999999998" y="139" as="sourcePoint" />
          </mxGeometry>
        </mxCell>
        <mxCell id="yy3Ijg_ue1_PDFxGy03H-35" value="Internet Gateway" style="text;html=1;align=center;verticalAlign=middle;whiteSpace=wrap;rounded=0;" vertex="1" parent="1">
          <mxGeometry x="264.5" y="267" width="98" height="32" as="geometry" />
        </mxCell>
        <mxCell id="yy3Ijg_ue1_PDFxGy03H-36" value="Lambda Function &lt;br&gt;For Authentication" style="text;html=1;align=center;verticalAlign=middle;whiteSpace=wrap;rounded=0;fontStyle=1" vertex="1" parent="1">
          <mxGeometry x="687" y="321" width="153" height="30" as="geometry" />
        </mxCell>
        <mxCell id="yy3Ijg_ue1_PDFxGy03H-37" value="CloudWatch Log" style="text;html=1;align=center;verticalAlign=middle;whiteSpace=wrap;rounded=0;fontStyle=1" vertex="1" parent="1">
          <mxGeometry x="892" y="318" width="101" height="30" as="geometry" />
        </mxCell>
        <mxCell id="yy3Ijg_ue1_PDFxGy03H-38" value="" style="sketch=0;points=[[0,0,0],[0.25,0,0],[0.5,0,0],[0.75,0,0],[1,0,0],[0,1,0],[0.25,1,0],[0.5,1,0],[0.75,1,0],[1,1,0],[0,0.25,0],[0,0.5,0],[0,0.75,0],[1,0.25,0],[1,0.5,0],[1,0.75,0]];outlineConnect=0;fontColor=#232F3E;fillColor=#DD344C;strokeColor=#ffffff;dashed=0;verticalLabelPosition=bottom;verticalAlign=top;align=center;html=1;fontSize=12;fontStyle=0;aspect=fixed;shape=mxgraph.aws4.resourceIcon;resIcon=mxgraph.aws4.secrets_manager;" vertex="1" parent="1">
          <mxGeometry x="822" y="170" width="78" height="78" as="geometry" />
        </mxCell>
        <mxCell id="yy3Ijg_ue1_PDFxGy03H-39" style="edgeStyle=orthogonalEdgeStyle;rounded=0;orthogonalLoop=1;jettySize=auto;html=1;entryX=0;entryY=0.5;entryDx=0;entryDy=0;entryPerimeter=0;dashed=1;endArrow=block;endFill=1;strokeColor=#007FFF;flowAnimation=1;" edge="1" parent="1" source="yy3Ijg_ue1_PDFxGy03H-15" target="yy3Ijg_ue1_PDFxGy03H-38">
          <mxGeometry relative="1" as="geometry">
            <Array as="points">
              <mxPoint x="667" y="209" />
            </Array>
          </mxGeometry>
        </mxCell>
        <mxCell id="yy3Ijg_ue1_PDFxGy03H-44" style="edgeStyle=orthogonalEdgeStyle;rounded=0;orthogonalLoop=1;jettySize=auto;html=1;entryX=0;entryY=0.5;entryDx=0;entryDy=0;dashed=1;endArrow=block;endFill=1;flowAnimation=1;" edge="1" parent="1" source="yy3Ijg_ue1_PDFxGy03H-41" target="yy3Ijg_ue1_PDFxGy03H-43">
          <mxGeometry relative="1" as="geometry" />
        </mxCell>
        <mxCell id="yy3Ijg_ue1_PDFxGy03H-41" value="" style="sketch=0;pointerEvents=1;shadow=0;dashed=0;html=1;strokeColor=none;labelPosition=center;verticalLabelPosition=bottom;verticalAlign=top;align=center;fillColor=#505050;shape=mxgraph.mscae.intune.user_group" vertex="1" parent="1">
          <mxGeometry x="163" y="51.5" width="50" height="37" as="geometry" />
        </mxCell>
        <mxCell id="yy3Ijg_ue1_PDFxGy03H-43" value="" style="image;aspect=fixed;perimeter=ellipsePerimeter;html=1;align=center;shadow=0;dashed=0;spacingTop=3;image=img/lib/active_directory/internet_globe.svg;" vertex="1" parent="1">
          <mxGeometry x="288.5" y="45" width="50" height="50" as="geometry" />
        </mxCell>
      </root>
    </mxGraphModel>
  </diagram>
</mxfile>
